<svg width="710" height="710" viewBox="0 0 710 710" fill="none" xmlns="http://www.w3.org/2000/svg">
<g clip-path="url(#clip0_0_3)">
<path d="M703.1 328.9L551.8 66.8C542.9 51.4 524.3 40.7 506.6 40.7H203.9C186.2 40.7 167.6 51.4 158.7 66.8L7.40001 328.9C3.00001 336.4 0.700012 345.4 0.700012 355C0.700012 364.5 3.00001 373.5 7.40001 381.1L158.7 643.2C167.6 658.6 186.2 669.3 203.9 669.3H506.6C524.3 669.3 542.9 658.6 551.8 643.2L703.1 381.1C707.5 373.5 709.8 364.5 709.8 355C709.8 345.4 707.5 336.4 703.1 328.9ZM646.3 355.4C646.3 359.8 645.2 364 643.2 367.6L509.7 598.7C505.5 606 497 610.9 488.6 610.9H221.7C213.3 610.9 204.8 606 200.6 598.7L67.2 367.6C65.1 364 64.1 359.8 64.1 355.4C64.1 351 65.2 346.8 67.2 343.2L200.6 112.1C204.8 104.8 213.3 99.9 221.7 99.9H488.6C497 99.9 505.5 104.8 509.7 112.1L643.1 343.2C645.2 346.8 646.3 351 646.3 355.4Z" fill="#26414C"/>
<path d="M256.415 216.257C276.366 216.257 292.281 221.861 304.162 233.069C316.043 244.278 322.095 260.193 322.319 280.816H299.791C299.567 266.694 295.532 255.822 287.686 248.2C279.84 240.355 269.304 236.432 256.079 236.432C243.077 236.432 232.878 240.131 225.48 247.528C218.307 254.925 214.721 265.125 214.721 278.126C214.721 290.231 218.195 299.31 225.144 305.362C232.317 311.415 245.319 318.364 264.149 326.209C288.358 335.624 305.395 345.151 315.258 354.79C325.345 364.205 330.389 377.207 330.389 393.795C330.389 414.418 323.888 430.67 310.887 442.55C298.109 454.431 281.185 460.371 260.114 460.371C236.801 460.371 218.419 453.87 204.97 440.869C191.744 427.643 185.019 410.046 184.795 388.078H207.323C207.547 404.667 212.255 417.556 221.446 426.747C230.86 435.713 243.862 440.196 260.45 440.196C275.693 440.196 287.35 436.049 295.419 427.755C303.714 419.237 307.861 408.253 307.861 394.803C307.861 383.819 303.826 374.853 295.756 367.904C287.686 360.955 273.788 353.894 254.061 346.72C232.317 337.978 216.514 328.899 206.651 319.484C197.012 310.07 192.192 296.62 192.192 279.135C192.192 261.202 197.796 246.295 209.004 234.414C220.213 222.31 236.016 216.257 256.415 216.257Z" fill="#26414C"/>
<path d="M322.319 280.816V291.728H333.35L333.23 280.698L322.319 280.816ZM299.791 280.816L288.88 280.989L289.051 291.728H299.791V280.816ZM287.686 248.2L279.97 255.916L280.026 255.972L280.083 256.027L287.686 248.2ZM225.48 247.528L217.765 239.812L217.705 239.872L217.647 239.932L225.48 247.528ZM225.144 305.362L217.978 313.59L218.042 313.647L218.108 313.702L225.144 305.362ZM264.149 326.209L259.952 336.282L260.072 336.332L260.194 336.379L264.149 326.209ZM315.258 354.79L307.631 362.594L307.721 362.682L307.813 362.767L315.258 354.79ZM310.887 442.55L303.526 434.495L303.491 434.527L303.456 434.559L310.887 442.55ZM204.97 440.869L197.254 448.585L197.319 448.65L197.386 448.714L204.97 440.869ZM184.795 388.078V377.167H173.771L173.884 388.19L184.795 388.078ZM207.323 388.078L218.234 387.931L218.089 377.167H207.323V388.078ZM221.446 426.747L213.73 434.462L213.824 434.557L213.92 434.648L221.446 426.747ZM295.419 427.755L287.602 420.143L287.599 420.146L295.419 427.755ZM295.756 367.904L302.876 359.635L302.876 359.635L295.756 367.904ZM254.061 346.72L249.991 356.844L250.16 356.913L250.332 356.975L254.061 346.72ZM206.651 319.484L199.026 327.29L199.071 327.334L199.116 327.378L206.651 319.484ZM209.004 234.414L216.942 241.902L216.977 241.865L217.011 241.828L209.004 234.414ZM256.415 227.169C274.232 227.169 287.247 232.113 296.674 241.007L311.65 225.132C297.316 211.61 278.499 205.345 256.415 205.345V227.169ZM296.674 241.007C305.866 249.678 311.207 262.45 311.408 280.935L333.23 280.698C332.983 257.936 326.219 238.877 311.65 225.132L296.674 241.007ZM322.319 269.904H299.791V291.728H322.319V269.904ZM310.701 280.643C310.445 264.511 305.762 250.547 295.289 240.374L280.083 256.027C285.301 261.097 288.688 268.877 288.88 280.989L310.701 280.643ZM295.402 240.485C285.124 230.207 271.603 225.52 256.079 225.52V247.344C267.006 247.344 274.557 250.503 279.97 255.916L295.402 240.485ZM256.079 225.52C240.927 225.52 227.68 229.897 217.765 239.812L233.196 255.244C238.075 250.365 245.228 247.344 256.079 247.344V225.52ZM217.647 239.932C208.017 249.862 203.809 263.067 203.809 278.126H225.632C225.632 267.183 228.597 259.988 233.314 255.124L217.647 239.932ZM203.809 278.126C203.809 292.336 207.957 304.863 217.978 313.59L232.311 297.134C228.433 293.756 225.632 288.127 225.632 278.126H203.809ZM218.108 313.702C226.656 320.914 241.009 328.389 259.952 336.282L268.346 316.137C249.629 308.338 237.979 301.915 232.181 297.022L218.108 313.702ZM260.194 336.379C284.029 345.649 299.382 354.532 307.631 362.594L322.885 346.986C311.408 335.77 292.687 325.6 268.104 316.04L260.194 336.379ZM307.813 362.767C315.248 369.707 319.477 379.57 319.477 393.795H341.301C341.301 374.843 335.443 358.703 322.703 346.813L307.813 362.767ZM319.477 393.795C319.477 411.926 313.874 425.039 303.526 434.495L318.248 450.605C333.902 436.3 341.301 416.909 341.301 393.795H319.477ZM303.456 434.559C293.101 444.188 279.033 449.459 260.114 449.459V471.283C283.337 471.283 303.118 464.674 318.317 450.541L303.456 434.559ZM260.114 449.459C238.898 449.459 223.496 443.602 212.553 433.024L197.386 448.714C213.342 464.139 234.704 471.283 260.114 471.283V449.459ZM212.685 433.153C201.828 422.296 195.906 407.615 195.706 387.967L173.884 388.19C174.131 412.478 181.66 432.991 197.254 448.585L212.685 433.153ZM184.795 398.99H207.323V377.167H184.795V398.99ZM196.412 388.226C196.664 406.836 202.015 422.748 213.73 434.462L229.161 419.031C222.495 412.364 218.431 402.497 218.234 387.931L196.412 388.226ZM213.92 434.648C225.88 446.039 241.865 451.108 260.45 451.108V429.285C245.859 429.285 235.841 425.388 228.971 418.845L213.92 434.648ZM260.45 451.108C277.665 451.108 292.524 446.379 303.24 435.365L287.599 420.146C282.175 425.72 273.721 429.285 260.45 429.285V451.108ZM303.237 435.368C313.781 424.539 318.772 410.692 318.772 394.803H296.949C296.949 405.815 293.646 413.935 287.602 420.143L303.237 435.368ZM318.772 394.803C318.772 380.757 313.438 368.731 302.876 359.635L288.636 376.172C294.213 380.975 296.949 386.882 296.949 394.803H318.772ZM302.876 359.635C293.245 351.342 277.792 343.739 257.79 336.465L250.332 356.975C269.783 364.048 282.127 370.567 288.636 376.172L302.876 359.635ZM258.132 336.596C236.884 328.053 222.574 319.599 214.185 311.591L199.116 327.378C210.454 338.2 227.751 347.903 249.991 356.844L258.132 336.596ZM214.275 311.678C207.314 304.879 203.104 294.597 203.104 279.135H181.28C181.28 298.643 186.71 315.26 199.026 327.29L214.275 311.678ZM203.104 279.135C203.104 263.689 207.838 251.552 216.942 241.902L201.067 226.927C187.754 241.039 181.28 258.715 181.28 279.135H203.104ZM217.011 241.828C225.683 232.463 238.284 227.169 256.415 227.169V205.345C233.748 205.345 214.743 212.156 200.998 227.001L217.011 241.828Z" fill="#26414C"/>
<path d="M448.65 220.628C471.29 220.628 489.223 226.905 502.449 239.458C515.899 252.011 522.624 268.711 522.624 289.559C522.624 305.474 518.477 318.924 510.183 329.908C502.113 340.892 490.68 348.626 475.885 353.109L532.711 456H507.156L453.021 356.808H411.326V456H389.134V220.628H448.65ZM448.65 241.476H411.326V336.297H448.65C464.117 336.297 476.558 332.15 485.973 323.856C495.612 315.562 500.431 304.129 500.431 289.559C500.431 274.764 495.724 263.107 486.309 254.589C476.894 245.847 464.341 241.476 448.65 241.476Z" fill="#26414C"/>
<path d="M502.449 239.458L494.937 247.372L494.97 247.404L495.004 247.435L502.449 239.458ZM510.183 329.908L501.474 323.333L501.431 323.39L501.389 323.447L510.183 329.908ZM475.885 353.109L472.721 342.666L459.813 346.578L466.334 358.384L475.885 353.109ZM532.711 456V466.912H551.203L542.263 450.725L532.711 456ZM507.156 456L497.578 461.227L500.68 466.912H507.156V456ZM453.021 356.808L462.599 351.58L459.497 345.896H453.021V356.808ZM411.326 356.808V345.896H400.415V356.808H411.326ZM411.326 456V466.912H422.238V456H411.326ZM389.134 456H378.222V466.912H389.134V456ZM389.134 220.628V209.717H378.222V220.628H389.134ZM411.326 241.476V230.564H400.415V241.476H411.326ZM411.326 336.297H400.415V347.208H411.326V336.297ZM485.973 323.856L478.856 315.584L478.808 315.626L478.76 315.668L485.973 323.856ZM486.309 254.589L478.884 262.585L478.936 262.633L478.988 262.681L486.309 254.589ZM448.65 231.54C469.204 231.54 484.201 237.182 494.937 247.372L509.961 231.544C494.246 216.628 473.376 209.717 448.65 209.717V231.54ZM495.004 247.435C505.938 257.64 511.712 271.292 511.712 289.559H533.535C533.535 266.13 525.86 246.382 509.894 231.481L495.004 247.435ZM511.712 289.559C511.712 303.487 508.122 314.529 501.474 323.333L518.891 336.483C528.831 323.319 533.535 307.461 533.535 289.559H511.712ZM501.389 323.447C494.9 332.28 485.575 338.771 472.721 342.666L479.05 363.552C495.785 358.48 509.325 349.504 518.976 336.369L501.389 323.447ZM466.334 358.384L523.159 461.275L542.263 450.725L485.437 347.834L466.334 358.384ZM532.711 445.088H507.156V466.912H532.711V445.088ZM516.734 450.773L462.599 351.58L443.443 362.035L497.578 461.227L516.734 450.773ZM453.021 345.896H411.326V367.719H453.021V345.896ZM400.415 356.808V456H422.238V356.808H400.415ZM411.326 445.088H389.134V466.912H411.326V445.088ZM400.046 456V220.628H378.222V456H400.046ZM389.134 231.54H448.65V209.717H389.134V231.54ZM448.65 230.564H411.326V252.387H448.65V230.564ZM400.415 241.476V336.297H422.238V241.476H400.415ZM411.326 347.208H448.65V325.385H411.326V347.208ZM448.65 347.208C466.129 347.208 481.343 342.476 493.186 332.043L478.76 315.668C471.773 321.823 462.105 325.385 448.65 325.385V347.208ZM493.09 332.127C505.503 321.446 511.343 306.792 511.343 289.559H489.52C489.52 301.467 485.72 309.678 478.856 315.584L493.09 332.127ZM511.343 289.559C511.343 272.24 505.716 257.432 493.63 246.498L478.988 262.681C485.732 268.782 489.52 277.288 489.52 289.559H511.343ZM493.734 246.593C481.875 235.581 466.454 230.564 448.65 230.564V252.387C462.228 252.387 471.913 256.112 478.884 262.585L493.734 246.593Z" fill="#26414C"/>
</g>
<defs>
<clipPath id="clip0_0_3">
<rect width="709.9" height="709.9" fill="white"/>
</clipPath>
</defs>
</svg>
