<?xml version="1.0" standalone="no"?>
<!DOCTYPE svg PUBLIC "-//W3C//DTD SVG 20010904//EN"
 "http://www.w3.org/TR/2001/REC-SVG-20010904/DTD/svg10.dtd">
<svg version="1.0" xmlns="http://www.w3.org/2000/svg"
 width="16.000000pt" height="16.000000pt" viewBox="0 0 16.000000 16.000000"
 preserveAspectRatio="xMidYMid meet">
<metadata>
Created by potrace 1.11, written by Peter Selinger 2001-2013
</metadata>
<g transform="translate(0.000000,16.000000) scale(0.002286,-0.002286)"
fill="#000000" stroke="none">
<path d="M1892 6579 c-169 -43 -261 -123 -382 -334 -47 -80 -93 -161 -104
-178 -23 -40 -317 -550 -344 -597 -10 -19 -94 -164 -186 -323 -92 -158 -175
-302 -185 -320 -10 -17 -50 -86 -88 -152 -38 -66 -131 -226 -205 -355 -75
-129 -145 -251 -157 -270 -11 -19 -33 -57 -48 -85 -15 -27 -32 -57 -38 -66
-37 -60 -107 -192 -119 -226 -40 -115 -36 -257 11 -375 9 -24 45 -90 79 -148
33 -58 191 -330 349 -605 159 -275 351 -608 428 -740 77 -132 149 -258 161
-280 53 -97 482 -835 511 -880 65 -99 159 -172 281 -218 l59 -22 1565 -3
c1697 -2 1615 -5 1730 50 95 46 191 132 237 214 12 21 36 64 53 94 17 30 40
71 51 90 12 19 132 226 267 460 135 234 287 497 337 585 51 88 102 176 114
195 11 19 24 41 28 49 3 8 35 64 71 125 36 61 74 127 84 146 24 42 243 421
376 650 152 261 165 294 166 425 1 109 -7 153 -39 223 -21 45 -385 686 -434
762 -9 14 -21 34 -27 45 -23 43 -63 113 -94 165 -30 50 -66 113 -94 165 -6 11
-16 27 -22 35 -6 8 -27 44 -46 80 -20 36 -57 100 -82 143 -25 43 -46 82 -46
87 0 6 -4 10 -10 10 -5 0 -10 4 -10 9 0 5 -73 134 -162 287 -88 154 -180 313
-203 354 -23 41 -56 98 -72 126 -17 27 -42 70 -55 95 -163 286 -184 317 -249
379 -63 61 -156 112 -241 134 -44 11 -315 14 -1598 14 -1477 0 -1548 -1 -1618
-19z m3018 -585 c57 -26 99 -70 150 -158 22 -37 40 -70 40 -72 0 -3 18 -33 40
-68 22 -35 40 -66 40 -71 0 -4 8 -19 19 -33 15 -23 156 -265 236 -407 13 -22
71 -123 130 -225 59 -102 119 -205 133 -230 14 -25 42 -74 64 -109 21 -34 38
-65 38 -67 0 -1 37 -67 83 -146 46 -79 120 -206 164 -283 45 -77 129 -222 187
-323 125 -216 132 -230 135 -302 3 -69 -4 -85 -134 -310 -59 -102 -118 -203
-130 -225 -41 -72 -127 -219 -146 -250 -10 -16 -22 -37 -26 -45 -3 -8 -36 -67
-73 -130 -37 -63 -179 -308 -315 -545 -483 -837 -527 -910 -557 -942 -34 -36
-84 -62 -132 -71 -17 -3 -634 -5 -1372 -6 l-1340 0 -55 27 c-30 14 -65 37 -77
49 -17 19 -210 346 -356 603 -13 22 -175 303 -361 625 -186 322 -381 659 -433
750 -52 91 -121 210 -153 265 -62 106 -81 167 -73 228 7 63 5 59 240 464 11
18 98 168 194 335 96 167 180 310 185 320 6 9 17 29 26 45 8 15 100 174 204
353 280 484 415 718 454 789 39 70 101 140 141 159 14 6 42 15 63 20 21 4 642
7 1380 7 1330 -1 1342 -1 1387 -21z"/>
<path d="M3318 5155 c-2 -2 -39 -5 -82 -6 -44 -1 -98 -6 -120 -10 -23 -4 -60
-10 -83 -13 -194 -26 -480 -146 -671 -283 -102 -73 -252 -215 -325 -308 -26
-33 -51 -65 -57 -72 -48 -58 -148 -243 -193 -358 -80 -204 -112 -379 -111
-610 0 -209 23 -350 87 -545 88 -265 218 -474 410 -656 227 -215 543 -369 862
-420 22 -3 51 -8 65 -11 14 -2 102 -6 195 -8 130 -2 197 2 285 16 267 43 513
148 739 316 15 11 16 1 16 -112 1 -182 -23 -170 317 -171 l271 -2 24 24 23 23
0 1554 c0 1516 0 1555 -19 1578 l-19 24 -278 0 -277 0 -18 -25 c-18 -24 -19
-69 -22 -890 -3 -856 -3 -866 -24 -941 -97 -335 -324 -586 -635 -702 -140 -53
-347 -77 -481 -56 -29 5 -68 11 -87 14 -19 3 -70 17 -112 30 -311 100 -498
272 -612 562 -57 147 -75 239 -77 399 -5 496 348 918 841 1007 70 13 280 15
340 4 118 -22 212 -56 329 -118 110 -59 148 -61 180 -8 17 27 19 55 19 266 0
275 -7 311 -67 366 -31 28 -102 61 -156 73 -5 1 -41 10 -80 19 -95 23 -174 35
-275 41 -47 3 -93 7 -102 8 -9 2 -18 2 -20 1z"/>
</g>
</svg>
